# Blender v2.78 (sub 0) OBJ File: ''
# www.blender.org
mtllib untitled.mtl
o Part1
v -7.279617 10.636250 -0.377181
v -7.279617 10.636250 2.163712
v -7.279617 18.573750 -0.377181
v -7.279617 18.573750 2.163712
v 7.807983 10.636250 2.163712
v 7.807983 10.636250 -0.377181
v 7.807983 18.573750 2.163712
v 7.807983 18.573750 -0.377181
v 1.534183 10.636250 -0.377181
v 1.534183 10.636250 2.162818
v -1.005817 10.636250 2.162818
v -1.005817 10.636250 -0.377181
v 1.534183 0.000000 2.162818
v 1.534183 0.000000 -0.377181
v -1.005817 0.000000 2.162818
v -1.005817 0.000000 -0.377181
vn -1.0000 0.0000 0.0000
vn 1.0000 0.0000 0.0000
vn 0.0000 0.0000 1.0000
vn 0.0000 1.0000 0.0000
vn 0.0000 -1.0000 0.0000
vn 0.0000 -1.0000 0.0023
vn 0.0000 0.0000 -1.0000
usemtl None
s off
f 1//1 2//1 3//1
f 3//1 2//1 4//1
f 5//2 6//2 7//2
f 7//2 6//2 8//2
f 2//3 5//3 4//3
f 4//3 5//3 7//3
f 4//4 7//4 3//4
f 3//4 7//4 8//4
f 9//5 6//5 10//5
f 10//5 6//5 5//5
f 10//6 5//6 2//6
f 10//5 2//5 11//5
f 11//5 2//5 1//5
f 11//5 1//5 12//5
f 13//2 14//2 10//2
f 10//2 14//2 9//2
f 15//3 13//3 11//3
f 11//3 13//3 10//3
f 16//1 15//1 12//1
f 12//1 15//1 11//1
f 14//7 16//7 9//7
f 9//7 16//7 12//7
f 9//7 12//7 8//7
f 8//7 12//7 3//7
f 3//7 12//7 1//7
f 8//7 6//7 9//7
f 16//5 14//5 15//5
f 15//5 14//5 13//5
